<svg width="126" height="20" viewBox="0 0 126 20" fill="none" xmlns="http://www.w3.org/2000/svg">
<path d="M11.134 3.79052C10.0038 3.79052 9.21088 3.99003 8.7554 4.38903C8.31678 4.7714 8.09748 5.39485 8.09748 6.25935V19.601H2.93534V6.50873C2.93534 5.12884 3.22212 3.95677 3.79569 2.99252C4.36926 2.01164 5.21275 1.27182 6.32615 0.773066C7.45643 0.257689 8.84818 0 10.5014 0C11.2437 0 11.9016 0.0498752 12.4752 0.149625C13.0656 0.249376 13.6898 0.390689 14.3477 0.573566V4.31421C13.8416 4.13134 13.3187 3.99834 12.7788 3.91521C12.2559 3.83209 11.7076 3.79052 11.134 3.79052ZM0 10.2993V6.53366H13.9935V10.2993H0Z" fill="#020202"/>
<path d="M28.4232 19.601L27.7653 14.4638L28.4485 12.4938L27.7653 10.5237L28.4232 5.36159H33.7878L32.8768 12.4688L33.7878 19.601H28.4232ZM29.6378 12.4938C29.4017 13.99 28.9293 15.3034 28.2208 16.4339C27.5291 17.5644 26.6435 18.4456 25.5638 19.0773C24.501 19.6924 23.2864 20 21.9199 20C20.5029 20 19.2545 19.6924 18.1748 19.0773C17.1121 18.4456 16.277 17.5644 15.6697 16.4339C15.0624 15.2868 14.7587 13.9734 14.7587 12.4938C14.7587 10.9809 15.0624 9.65918 15.6697 8.52868C16.277 7.39817 17.1121 6.51704 18.1748 5.88529C19.2545 5.25353 20.5029 4.93766 21.9199 4.93766C23.2864 4.93766 24.501 5.25353 25.5638 5.88529C26.6435 6.50042 27.5376 7.37323 28.2461 8.50374C28.9546 9.61762 29.4185 10.9476 29.6378 12.4938ZM19.9968 12.4938C19.9968 13.192 20.1402 13.8155 20.427 14.3641C20.7306 14.9127 21.1439 15.345 21.6669 15.6608C22.1898 15.9601 22.7887 16.1097 23.4635 16.1097C24.172 16.1097 24.8384 15.9601 25.4626 15.6608C26.0868 15.345 26.635 14.9127 27.1074 14.3641C27.5797 13.8155 27.934 13.192 28.1702 12.4938C27.934 11.7789 27.5797 11.1471 27.1074 10.5985C26.635 10.0499 26.0868 9.61762 25.4626 9.30174C24.8384 8.98587 24.172 8.82793 23.4635 8.82793C22.7887 8.82793 22.1898 8.98587 21.6669 9.30174C21.1439 9.61762 20.7306 10.0499 20.427 10.5985C20.1402 11.1471 19.9968 11.7789 19.9968 12.4938Z" fill="#020202"/>
<path d="M53.3809 13.591C53.2459 14.8712 52.7736 15.9933 51.9638 16.9576C51.1541 17.9219 50.0997 18.67 48.8007 19.202C47.5186 19.734 46.0763 20 44.4737 20C42.7023 20 41.1419 19.6841 39.7923 19.0524C38.4427 18.4206 37.3884 17.5395 36.6292 16.409C35.8701 15.2785 35.4905 13.9734 35.4905 12.4938C35.4905 10.9975 35.8701 9.68412 36.6292 8.55362C37.3884 7.42311 38.4427 6.54198 39.7923 5.91022C41.1419 5.26185 42.7023 4.93766 44.4737 4.93766C46.0763 4.93766 47.5186 5.21197 48.8007 5.7606C50.0997 6.2926 51.1541 7.04073 51.9638 8.00499C52.7736 8.95262 53.2459 10.0748 53.3809 11.3716H48.244C48.0585 10.5237 47.6283 9.87531 46.9535 9.42643C46.2787 8.96093 45.4521 8.72818 44.4737 8.72818C43.7145 8.72818 43.0482 8.8778 42.4746 9.17706C41.9179 9.45968 41.4793 9.88362 41.1588 10.4489C40.8551 10.9975 40.7033 11.6791 40.7033 12.4938C40.7033 13.2918 40.8551 13.9734 41.1588 14.5387C41.4793 15.0873 41.9179 15.5112 42.4746 15.8105C43.0482 16.0931 43.7145 16.2344 44.4737 16.2344C45.4521 16.2344 46.2787 15.9933 46.9535 15.5112C47.6452 15.0291 48.0754 14.389 48.244 13.591H53.3809Z" fill="#020202"/>
<path d="M53.9605 9.12718V6.90773L56.8958 5.73566L59.1227 1.5212H62.058V5.36159H68.1311V9.12718H62.058V13.3167C62.058 14.3475 62.2689 15.0707 62.6906 15.4863C63.1123 15.9019 63.8799 16.1097 64.9933 16.1097C65.7019 16.1097 66.326 16.0515 66.8659 15.9352C67.4226 15.8022 67.9287 15.6359 68.3841 15.4364V19.2768C67.8781 19.4597 67.2117 19.6259 66.3851 19.7756C65.5585 19.9252 64.7065 20 63.8293 20C62.2267 20 60.9108 19.7589 59.8818 19.2768C58.8696 18.7947 58.1189 18.1047 57.6297 17.207C57.1405 16.2926 56.8958 15.2286 56.8958 14.015V9.12718H53.9605Z" fill="#020202"/>
<path d="M76.6977 20C75.3481 20 74.1925 19.7257 73.231 19.1771C72.2863 18.6284 71.5609 17.8554 71.0548 16.8579C70.5487 15.8437 70.2956 14.6633 70.2956 13.3167V5.36159H75.4578V12.5935C75.4578 13.6409 75.7193 14.4472 76.2422 15.0125C76.7652 15.5777 77.5159 15.8603 78.4943 15.8603C79.2197 15.8603 79.827 15.719 80.3163 15.4364C80.8055 15.1372 81.1851 14.7132 81.455 14.1646C81.7249 13.616 81.8598 12.9593 81.8598 12.1945L83.454 13.0175C83.2685 14.5303 82.8467 15.8105 82.1888 16.8579C81.5478 17.8886 80.7549 18.67 79.8102 19.202C78.8655 19.734 77.828 20 76.6977 20ZM82.7961 19.601L81.8598 13.8903V5.36159H87.022V14.6883L87.9583 19.601H82.7961Z" fill="#020202"/>
<path d="M89.4599 5.36159H94.6474L95.5836 11.0474V19.601H90.4215V10.2743L89.4599 5.36159ZM100.569 4.93766C101.901 4.93766 103.032 5.21197 103.959 5.7606C104.887 6.30923 105.596 7.08229 106.085 8.0798C106.574 9.07731 106.819 10.2577 106.819 11.6209V19.601H101.657V12.3691C101.657 11.3051 101.412 10.4904 100.923 9.92519C100.434 9.35993 99.7252 9.07731 98.7973 9.07731C98.1394 9.07731 97.5658 9.22693 97.0766 9.52618C96.6043 9.82544 96.2331 10.2494 95.9632 10.798C95.7102 11.3466 95.5836 11.995 95.5836 12.7431L93.9894 11.9202C94.1919 10.4073 94.6052 9.13549 95.2294 8.10474C95.8536 7.05736 96.6211 6.26766 97.5321 5.73566C98.4599 5.20366 99.4721 4.93766 100.569 4.93766ZM111.779 4.93766C113.111 4.93766 114.242 5.21197 115.169 5.7606C116.114 6.30923 116.831 7.08229 117.32 8.0798C117.81 9.07731 118.054 10.2577 118.054 11.6209V19.601H112.892V12.3691C112.892 11.3051 112.647 10.4904 112.158 9.92519C111.669 9.35993 110.96 9.07731 110.033 9.07731C109.375 9.07731 108.801 9.22693 108.312 9.52618C107.84 9.82544 107.468 10.2494 107.198 10.798C106.945 11.3466 106.819 11.995 106.819 12.7431L105.225 11.9202C105.427 10.4073 105.832 9.13549 106.439 8.10474C107.064 7.05736 107.84 6.26766 108.767 5.73566C109.695 5.20366 110.699 4.93766 111.779 4.93766Z" fill="#020202"/>
<path d="M123.09 19.8504C122.55 19.8504 122.052 19.7257 121.597 19.4763C121.158 19.2269 120.813 18.8861 120.56 18.4539C120.306 18.005 120.18 17.5145 120.18 16.9825C120.18 16.4505 120.306 15.9684 120.56 15.5362C120.813 15.1039 121.158 14.7631 121.597 14.5137C122.052 14.2477 122.55 14.1147 123.09 14.1147C123.647 14.1147 124.144 14.2477 124.583 14.5137C125.022 14.7631 125.367 15.1039 125.62 15.5362C125.873 15.9684 126 16.4505 126 16.9825C126 17.5145 125.873 18.005 125.62 18.4539C125.367 18.8861 125.022 19.2269 124.583 19.4763C124.144 19.7257 123.647 19.8504 123.09 19.8504Z" fill="#CB4E00"/>
</svg>
