<svg width="134" height="16" viewBox="0 0 134 16" fill="none" xmlns="http://www.w3.org/2000/svg">
<path d="M7.03041 3.63377C6.31671 3.63377 5.81606 3.78597 5.52846 4.09037C5.2515 4.38208 5.11302 4.85771 5.11302 5.51724V15.6956H1.85347V5.70749C1.85347 4.65478 2.03456 3.7606 2.39673 3.02497C2.7589 2.27665 3.29151 1.71225 3.99455 1.33175C4.70824 0.938565 5.58704 0.741974 6.63095 0.741974C7.09964 0.741974 7.51508 0.780024 7.87725 0.856124C8.25007 0.932224 8.6442 1.04003 9.05964 1.17955V4.03329C8.74007 3.89378 8.40986 3.79231 8.06899 3.72889C7.73877 3.66548 7.39258 3.63377 7.03041 3.63377ZM0 8.59929V5.72652H8.83594V8.59929H0Z" fill="white"/>
<path d="M17.9474 15.6956L17.5319 11.7765L17.9634 10.2735L17.5319 8.77051L17.9474 4.83234H21.3348L20.7595 10.2545L21.3348 15.6956H17.9474ZM18.7143 10.2735C18.5652 11.415 18.2669 12.417 17.8196 13.2794C17.3828 14.1419 16.8236 14.8141 16.1418 15.2961C15.4708 15.7654 14.7038 16 13.841 16C12.9462 16 12.1579 15.7654 11.4762 15.2961C10.8051 14.8141 10.2778 14.1419 9.89437 13.2794C9.51089 12.4043 9.31916 11.4023 9.31916 10.2735C9.31916 9.1193 9.51089 8.11098 9.89437 7.24851C10.2778 6.38605 10.8051 5.71383 11.4762 5.23187C12.1579 4.7499 12.9462 4.50892 13.841 4.50892C14.7038 4.50892 15.4708 4.7499 16.1418 5.23187C16.8236 5.70115 17.3881 6.36702 17.8355 7.22949C18.2829 8.07927 18.5759 9.09394 18.7143 10.2735ZM12.6266 10.2735C12.6266 10.8062 12.7172 11.2818 12.8983 11.7004C13.09 12.1189 13.351 12.4487 13.6812 12.6897C14.0114 12.918 14.3896 13.0321 14.8157 13.0321C15.263 13.0321 15.6838 12.918 16.0779 12.6897C16.4721 12.4487 16.8183 12.1189 17.1165 11.7004C17.4148 11.2818 17.6385 10.8062 17.7876 10.2735C17.6385 9.7281 17.4148 9.24613 17.1165 8.82759C16.8183 8.40904 16.4721 8.07927 16.0779 7.83829C15.6838 7.5973 15.263 7.47681 14.8157 7.47681C14.3896 7.47681 14.0114 7.5973 13.6812 7.83829C13.351 8.07927 13.09 8.40904 12.8983 8.82759C12.7172 9.24613 12.6266 9.7281 12.6266 10.2735Z" fill="white"/>
<path d="M33.7065 11.1106C33.6213 12.0872 33.323 12.9433 32.8117 13.679C32.3004 14.4146 31.6347 14.9853 30.8144 15.3912C30.0049 15.7971 29.0941 16 28.0822 16C26.9637 16 25.9784 15.759 25.1262 15.2771C24.274 14.7951 23.6083 14.1229 23.1289 13.2604C22.6496 12.3979 22.4099 11.4023 22.4099 10.2735C22.4099 9.13199 22.6496 8.13 23.1289 7.26754C23.6083 6.40507 24.274 5.73286 25.1262 5.25089C25.9784 4.75624 26.9637 4.50892 28.0822 4.50892C29.0941 4.50892 30.0049 4.71819 30.8144 5.13674C31.6347 5.54261 32.3004 6.11336 32.8117 6.84899C33.323 7.57194 33.6213 8.42806 33.7065 9.41736H30.4629C30.3458 8.77051 30.0741 8.27586 29.648 7.93341C29.222 7.57828 28.7 7.40071 28.0822 7.40071C27.6028 7.40071 27.1821 7.51486 26.8199 7.74316C26.4684 7.95878 26.1914 8.2822 25.989 8.71344C25.7973 9.13199 25.7014 9.652 25.7014 10.2735C25.7014 10.8823 25.7973 11.4023 25.989 11.8335C26.1914 12.2521 26.4684 12.5755 26.8199 12.8038C27.1821 13.0194 27.6028 13.1272 28.0822 13.1272C28.7 13.1272 29.222 12.9433 29.648 12.5755C30.0848 12.2077 30.3564 11.7194 30.4629 11.1106H33.7065Z" fill="white"/>
<path d="M34.0725 7.70511V6.01189L35.926 5.11772L37.3321 1.9025H39.1855V4.83234H43.0203V7.70511H39.1855V10.9013C39.1855 11.6877 39.3187 12.2394 39.585 12.5565C39.8513 12.8736 40.336 13.0321 41.039 13.0321C41.4864 13.0321 41.8805 12.9877 42.2214 12.8989C42.5729 12.7975 42.8925 12.6706 43.1801 12.5184V15.4483C42.8605 15.5878 42.4397 15.7146 41.9178 15.8288C41.3958 15.9429 40.8579 16 40.304 16C39.292 16 38.4612 15.8161 37.8114 15.4483C37.1723 15.0805 36.6983 14.5541 36.3893 13.8692C36.0804 13.1716 35.926 12.3599 35.926 11.434V7.70511H34.0725Z" fill="white"/>
<path d="M48.4295 16C47.5774 16 46.8477 15.7907 46.2405 15.3722C45.644 14.9536 45.186 14.3639 44.8664 13.6029C44.5468 12.8292 44.387 11.9287 44.387 10.9013V4.83234H47.6466V10.3496C47.6466 11.1486 47.8117 11.7638 48.1419 12.195C48.4721 12.6262 48.9462 12.8419 49.564 12.8419C50.022 12.8419 50.4055 12.734 50.7144 12.5184C51.0233 12.2901 51.263 11.9667 51.4334 11.5482C51.6039 11.1296 51.6891 10.6286 51.6891 10.0452L52.6957 10.673C52.5785 11.8272 52.3122 12.8038 51.8968 13.6029C51.492 14.3892 50.9914 14.9853 50.3948 15.3912C49.7983 15.7971 49.1432 16 48.4295 16ZM52.2803 15.6956L51.6891 11.3389V4.83234H54.9486V11.9477L55.5398 15.6956H52.2803Z" fill="white"/>
<path d="M56.488 4.83234H59.7636L60.3548 9.17003V15.6956H57.0952V8.58026L56.488 4.83234ZM63.5025 4.50892C64.344 4.50892 65.0577 4.71819 65.6435 5.13674C66.2294 5.55529 66.6768 6.14507 66.9857 6.90606C67.2946 7.66706 67.4491 8.56758 67.4491 9.60761V15.6956H64.1895V10.1784C64.1895 9.36663 64.0351 8.74514 63.7262 8.31391C63.4172 7.88268 62.9699 7.66706 62.384 7.66706C61.9686 7.66706 61.6064 7.78121 61.2975 8.00951C60.9992 8.23781 60.7649 8.56124 60.5944 8.97979C60.4346 9.39834 60.3548 9.89298 60.3548 10.4637L59.3481 9.83591C59.476 8.68173 59.7369 7.71145 60.1311 6.92509C60.5252 6.12604 61.0099 5.52358 61.5851 5.11772C62.1709 4.71185 62.8101 4.50892 63.5025 4.50892ZM70.5808 4.50892C71.4223 4.50892 72.136 4.71819 72.7219 5.13674C73.3184 5.55529 73.7711 6.14507 74.08 6.90606C74.3889 7.66706 74.5434 8.56758 74.5434 9.60761V15.6956H71.2838V10.1784C71.2838 9.36663 71.1294 8.74514 70.8205 8.31391C70.5116 7.88268 70.0642 7.66706 69.4783 7.66706C69.0629 7.66706 68.7007 7.78121 68.3918 8.00951C68.0935 8.23781 67.8592 8.56124 67.6887 8.97979C67.529 9.39834 67.4491 9.89298 67.4491 10.4637L66.4424 9.83591C66.5703 8.68173 66.8259 7.71145 67.2094 6.92509C67.6035 6.12604 68.0935 5.52358 68.6794 5.11772C69.2653 4.71185 69.8991 4.50892 70.5808 4.50892Z" fill="white"/>
<path d="M77.7232 15.8858C77.3823 15.8858 77.0681 15.7907 76.7805 15.6005C76.5035 15.4102 76.2851 15.1502 76.1254 14.8205C75.9656 14.478 75.8857 14.1038 75.8857 13.698C75.8857 13.2921 75.9656 12.9243 76.1254 12.5945C76.2851 12.2648 76.5035 12.0048 76.7805 11.8145C77.0681 11.6116 77.3823 11.5101 77.7232 11.5101C78.0747 11.5101 78.3889 11.6116 78.6659 11.8145C78.9428 12.0048 79.1612 12.2648 79.321 12.5945C79.4808 12.9243 79.5607 13.2921 79.5607 13.698C79.5607 14.1038 79.4808 14.478 79.321 14.8205C79.1612 15.1502 78.9428 15.4102 78.6659 15.6005C78.3889 15.7907 78.0747 15.8858 77.7232 15.8858Z" fill="white"/>
<path d="M91.7991 11.1106C91.7139 12.0872 91.4156 12.9433 90.9043 13.679C90.393 14.4146 89.7272 14.9853 88.907 15.3912C88.0975 15.7971 87.1867 16 86.1748 16C85.0563 16 84.071 15.759 83.2188 15.2771C82.3666 14.7951 81.7009 14.1229 81.2215 13.2604C80.7422 12.3979 80.5025 11.4023 80.5025 10.2735C80.5025 9.13199 80.7422 8.13 81.2215 7.26754C81.7009 6.40507 82.3666 5.73286 83.2188 5.25089C84.071 4.75624 85.0563 4.50892 86.1748 4.50892C87.1867 4.50892 88.0975 4.71819 88.907 5.13674C89.7272 5.54261 90.393 6.11336 90.9043 6.84899C91.4156 7.57194 91.7139 8.42806 91.7991 9.41736H88.5555C88.4383 8.77051 88.1667 8.27586 87.7406 7.93341C87.3145 7.57828 86.7926 7.40071 86.1748 7.40071C85.6954 7.40071 85.2747 7.51486 84.9125 7.74316C84.561 7.95878 84.284 8.2822 84.0816 8.71344C83.8899 9.13199 83.794 9.652 83.794 10.2735C83.794 10.8823 83.8899 11.4023 84.0816 11.8335C84.284 12.2521 84.561 12.5755 84.9125 12.8038C85.2747 13.0194 85.6954 13.1272 86.1748 13.1272C86.7926 13.1272 87.3145 12.9433 87.7406 12.5755C88.1774 12.2077 88.449 11.7194 88.5555 11.1106H91.7991Z" fill="white"/>
<path d="M98.5214 16C97.3497 16 96.3271 15.7654 95.4536 15.2961C94.5801 14.8141 93.8984 14.1419 93.4084 13.2794C92.9184 12.4043 92.6734 11.4023 92.6734 10.2735C92.6734 9.1193 92.9184 8.11098 93.4084 7.24851C93.8984 6.38605 94.5801 5.71383 95.4536 5.23187C96.3271 4.7499 97.3497 4.50892 98.5214 4.50892C99.6825 4.50892 100.7 4.7499 101.573 5.23187C102.457 5.71383 103.144 6.38605 103.634 7.24851C104.124 8.11098 104.369 9.1193 104.369 10.2735C104.369 11.4023 104.124 12.4043 103.634 13.2794C103.144 14.1419 102.457 14.8141 101.573 15.2961C100.7 15.7654 99.6825 16 98.5214 16ZM98.5214 13.1272C99.054 13.1272 99.5067 13.0131 99.8796 12.7848C100.263 12.5565 100.556 12.2267 100.758 11.7955C100.961 11.3642 101.062 10.8569 101.062 10.2735C101.062 9.66468 100.961 9.15101 100.758 8.73246C100.556 8.30123 100.263 7.97146 99.8796 7.74316C99.5067 7.51486 99.054 7.40071 98.5214 7.40071C97.9888 7.40071 97.5308 7.51486 97.1473 7.74316C96.7638 7.97146 96.4709 8.30123 96.2685 8.73246C96.0661 9.15101 95.9649 9.65834 95.9649 10.2545C95.9649 10.8506 96.0661 11.3642 96.2685 11.7955C96.4709 12.2267 96.7638 12.5565 97.1473 12.7848C97.5308 13.0131 97.9888 13.1272 98.5214 13.1272Z" fill="white"/>
<path d="M105.743 4.66112L107.389 5.04162L109.019 4.66112V15.6956H105.743V4.66112ZM107.373 3.76694C106.809 3.76694 106.351 3.60206 105.999 3.27229C105.648 2.92985 105.472 2.4669 105.472 1.88347C105.472 1.31272 105.648 0.856124 105.999 0.513674C106.351 0.171225 106.809 0 107.373 0C107.959 0 108.422 0.171225 108.763 0.513674C109.115 0.856124 109.291 1.31272 109.291 1.88347C109.291 2.4669 109.115 2.92985 108.763 3.27229C108.422 3.60206 107.959 3.76694 107.373 3.76694Z" fill="white"/>
<path d="M110.383 4.83234H113.659L114.25 9.17003V15.6956H110.99V8.58026L110.383 4.83234ZM117.605 4.50892C118.479 4.50892 119.224 4.71819 119.842 5.13674C120.46 5.55529 120.929 6.14507 121.248 6.90606C121.579 7.66706 121.744 8.56758 121.744 9.60761V15.6956H118.484V10.1784C118.484 9.36663 118.308 8.74514 117.957 8.31391C117.616 7.88268 117.121 7.66706 116.471 7.66706C116.024 7.66706 115.629 7.78121 115.289 8.00951C114.958 8.23781 114.703 8.56124 114.522 8.97979C114.34 9.39834 114.25 9.89298 114.25 10.4637L113.243 9.83591C113.371 8.68173 113.643 7.71145 114.058 6.92509C114.474 6.12604 114.985 5.52358 115.592 5.11772C116.199 4.71185 116.87 4.50892 117.605 4.50892Z" fill="white"/>
<path d="M134 12.157C134 12.9941 133.787 13.698 133.361 14.2687C132.935 14.8395 132.328 15.2707 131.539 15.5624C130.751 15.8541 129.803 16 128.695 16C127.555 16 126.554 15.8351 125.691 15.5053C124.839 15.1756 124.173 14.7126 123.694 14.1165C123.215 13.5204 122.959 12.8292 122.927 12.0428H126.235C126.309 12.3345 126.453 12.5882 126.666 12.8038C126.89 13.0067 127.183 13.1653 127.545 13.2794C127.907 13.3809 128.338 13.4316 128.839 13.4316C129.489 13.4316 129.979 13.3555 130.309 13.2033C130.65 13.0511 130.82 12.8228 130.82 12.5184C130.82 12.2774 130.693 12.0999 130.437 11.9857C130.181 11.8589 129.744 11.7638 129.127 11.7004L127.513 11.5482C126.437 11.4594 125.579 11.2691 124.94 10.9774C124.312 10.673 123.859 10.2862 123.582 9.81688C123.305 9.33492 123.167 8.78954 123.167 8.18074C123.167 7.35632 123.38 6.67776 123.806 6.14506C124.243 5.59968 124.844 5.19382 125.611 4.92747C126.389 4.64843 127.294 4.50892 128.328 4.50892C129.35 4.50892 130.261 4.66746 131.06 4.98454C131.859 5.30162 132.498 5.74554 132.977 6.31629C133.457 6.87436 133.734 7.53389 133.808 8.29489H130.501C130.448 8.0539 130.33 7.83829 130.149 7.64804C129.968 7.44511 129.718 7.28022 129.398 7.15339C129.079 7.02656 128.669 6.96314 128.168 6.96314C127.582 6.96314 127.135 7.03924 126.826 7.19144C126.528 7.34364 126.378 7.55925 126.378 7.83829C126.378 8.0539 126.469 8.22513 126.65 8.35196C126.842 8.4788 127.193 8.56758 127.705 8.61831L129.83 8.80856C130.884 8.88466 131.715 9.06857 132.322 9.36028C132.929 9.63932 133.361 10.0135 133.617 10.4828C133.872 10.952 134 11.5101 134 12.157Z" fill="white"/>
</svg>
