<svg width="182" height="29" viewBox="0 0 182 29" fill="none" xmlns="http://www.w3.org/2000/svg">
<path d="M16.0825 5.49626C14.4499 5.49626 13.3046 5.78554 12.6467 6.36409C12.0131 6.91854 11.6964 7.82253 11.6964 9.07606V28.4214H4.23993V9.43765C4.23993 7.43682 4.65418 5.73732 5.48267 4.33915C6.31116 2.91687 7.52953 1.84414 9.13778 1.12095C10.7704 0.373649 12.7807 0 15.1687 0C16.2409 0 17.1912 0.072319 18.0197 0.216957C18.8726 0.361595 19.7742 0.5665 20.7245 0.831671V6.25561C19.9935 5.99044 19.2381 5.79759 18.4583 5.67706C17.7029 5.55653 16.911 5.49626 16.0825 5.49626ZM0 14.9339V9.47381H20.2128V14.9339H0Z" fill="#020202"/>
<path d="M41.0558 28.4214L40.1054 20.9726L41.0923 18.116L40.1054 15.2593L41.0558 7.77431H48.8046L47.4888 18.0798L48.8046 28.4214H41.0558ZM42.8102 18.116C42.4691 20.2855 41.7868 22.1899 40.7633 23.8292C39.7643 25.4684 38.485 26.746 36.9255 27.6621C35.3903 28.554 33.6359 29 31.6621 29C29.6153 29 27.8121 28.554 26.2526 27.6621C24.7174 26.746 23.5112 25.4684 22.634 23.8292C21.7568 22.1658 21.3182 20.2614 21.3182 18.116C21.3182 15.9223 21.7568 14.0058 22.634 12.3666C23.5112 10.7273 24.7174 9.44971 26.2526 8.53367C27.8121 7.61762 29.6153 7.1596 31.6621 7.1596C33.6359 7.1596 35.3903 7.61762 36.9255 8.53367C38.485 9.4256 39.7765 10.6912 40.7999 12.3304C41.8233 13.9456 42.4934 15.8741 42.8102 18.116ZM28.8842 18.116C28.8842 19.1284 29.0914 20.0324 29.5056 20.8279C29.9442 21.6234 30.5412 22.2502 31.2966 22.7082C32.052 23.1421 32.917 23.3591 33.8917 23.3591C34.9152 23.3591 35.8777 23.1421 36.7793 22.7082C37.6809 22.2502 38.4728 21.6234 39.1551 20.8279C39.8374 20.0324 40.3491 19.1284 40.6902 18.116C40.3491 17.0794 39.8374 16.1633 39.1551 15.3678C38.4728 14.5723 37.6809 13.9456 36.7793 13.4875C35.8777 13.0295 34.9152 12.8005 33.8917 12.8005C32.917 12.8005 32.052 13.0295 31.2966 13.4875C30.5412 13.9456 29.9442 14.5723 29.5056 15.3678C29.0914 16.1633 28.8842 17.0794 28.8842 18.116Z" fill="#020202"/>
<path d="M77.1057 19.707C76.9108 21.5632 76.2285 23.1904 75.0589 24.5885C73.8892 25.9867 72.3663 27.0715 70.49 27.8429C68.638 28.6143 66.5546 29 64.2397 29C61.6811 29 59.4272 28.542 57.4778 27.6259C55.5284 26.7099 54.0054 25.4323 52.9089 23.793C51.8123 22.1538 51.2641 20.2614 51.2641 18.116C51.2641 15.9464 51.8123 14.042 52.9089 12.4027C54.0054 10.7635 55.5284 9.48587 57.4778 8.56982C59.4272 7.62968 61.6811 7.1596 64.2397 7.1596C66.5546 7.1596 68.638 7.55736 70.49 8.35287C72.3663 9.12427 73.8892 10.2091 75.0589 11.6072C76.2285 12.9813 76.9108 14.6085 77.1057 16.4888H69.6858C69.4178 15.2594 68.7964 14.3192 67.8217 13.6683C66.847 12.9933 65.653 12.6559 64.2397 12.6559C63.1432 12.6559 62.1807 12.8728 61.3522 13.3067C60.5481 13.7165 59.9145 14.3313 59.4515 15.1509C59.0129 15.9464 58.7936 16.9347 58.7936 18.116C58.7936 19.2731 59.0129 20.2614 59.4515 21.081C59.9145 21.8766 60.5481 22.4913 61.3522 22.9252C62.1807 23.335 63.1432 23.5399 64.2397 23.5399C65.653 23.5399 66.847 23.1904 67.8217 22.4913C68.8208 21.7922 69.4422 20.8641 69.6858 19.707H77.1057Z" fill="#020202"/>
<path d="M77.943 13.2344V10.0162L82.1829 8.31671L85.3994 2.20574H89.6393V7.77431H98.4116V13.2344H89.6393V19.3092C89.6393 20.8038 89.9439 21.8525 90.5531 22.4551C91.1623 23.0578 92.271 23.3591 93.8792 23.3591C94.9027 23.3591 95.8043 23.2747 96.584 23.106C97.3882 22.9131 98.1192 22.6721 98.7771 22.3828V27.9514C98.0461 28.2165 97.0836 28.4576 95.8896 28.6746C94.6956 28.8915 93.465 29 92.1979 29C89.883 29 87.9823 28.6505 86.4959 27.9514C85.0339 27.2523 83.9495 26.2519 83.2429 24.9501C82.5362 23.6243 82.1829 22.0815 82.1829 20.3217V13.2344H77.943Z" fill="#020202"/>
<path d="M110.786 29C108.836 29 107.167 28.6022 105.778 27.8067C104.413 27.0112 103.366 25.8903 102.635 24.4439C101.904 22.9734 101.538 21.2618 101.538 19.3092V7.77431H108.995V18.2606C108.995 19.7793 109.372 20.9485 110.128 21.7681C110.883 22.5877 111.967 22.9975 113.381 22.9975C114.428 22.9975 115.306 22.7926 116.012 22.3828C116.719 21.9489 117.267 21.3342 117.657 20.5387C118.047 19.7431 118.242 18.7909 118.242 17.682L120.545 18.8753C120.277 21.069 119.667 22.9252 118.717 24.4439C117.791 25.9385 116.646 27.0715 115.281 27.8429C113.917 28.6143 112.418 29 110.786 29ZM119.594 28.4214L118.242 20.1409V7.77431H125.698V21.298L127.051 28.4214H119.594Z" fill="#020202"/>
<path d="M129.22 7.77431H136.713L138.065 16.0187V28.4214H130.609V14.8978L129.22 7.77431ZM145.266 7.1596C147.191 7.1596 148.823 7.55736 150.164 8.35287C151.504 9.14838 152.527 10.2693 153.234 11.7157C153.941 13.1621 154.294 14.8736 154.294 16.8504V28.4214H146.838V17.9352C146.838 16.3924 146.484 15.2111 145.778 14.3915C145.071 13.5719 144.047 13.1621 142.707 13.1621C141.757 13.1621 140.928 13.3791 140.222 13.813C139.539 14.2469 139.003 14.8616 138.614 15.6571C138.248 16.4526 138.065 17.3928 138.065 18.4776L135.763 17.2843C136.055 15.0906 136.652 13.2465 137.554 11.7519C138.455 10.2332 139.564 9.08811 140.88 8.31671C142.22 7.5453 143.682 7.1596 145.266 7.1596ZM161.458 7.1596C163.383 7.1596 165.016 7.55736 166.356 8.35287C167.72 9.14838 168.756 10.2693 169.463 11.7157C170.169 13.1621 170.523 14.8736 170.523 16.8504V28.4214H163.066V17.9352C163.066 16.3924 162.713 15.2111 162.006 14.3915C161.3 13.5719 160.276 13.1621 158.936 13.1621C157.986 13.1621 157.157 13.3791 156.45 13.813C155.768 14.2469 155.232 14.8616 154.842 15.6571C154.477 16.4526 154.294 17.3928 154.294 18.4776L151.991 17.2843C152.284 15.0906 152.868 13.2465 153.746 11.7519C154.647 10.2332 155.768 9.08811 157.108 8.31671C158.449 7.5453 159.898 7.1596 161.458 7.1596Z" fill="#020202"/>
<path d="M177.797 28.783C177.017 28.783 176.298 28.6022 175.64 28.2406C175.007 27.8791 174.507 27.3849 174.142 26.7581C173.776 26.1072 173.593 25.3961 173.593 24.6247C173.593 23.8533 173.776 23.1542 174.142 22.5274C174.507 21.9007 175.007 21.4065 175.64 21.0449C176.298 20.6592 177.017 20.4663 177.797 20.4663C178.601 20.4663 179.32 20.6592 179.953 21.0449C180.587 21.4065 181.086 21.9007 181.452 22.5274C181.817 23.1542 182 23.8533 182 24.6247C182 25.3961 181.817 26.1072 181.452 26.7581C181.086 27.3849 180.587 27.8791 179.953 28.2406C179.32 28.6022 178.601 28.783 177.797 28.783Z" fill="#CB4E00"/>
</svg>
