<svg width="15" height="15" viewBox="0 0 15 15" fill="none" xmlns="http://www.w3.org/2000/svg">
<path fill-rule="evenodd" clip-rule="evenodd" d="M10.2066 11.1463C9.1304 12.0163 7.76034 12.5373 6.26867 12.5373C2.80658 12.5373 0 9.73074 0 6.26866C0 2.80658 2.80658 0 6.26867 0C9.73076 0 12.5373 2.80658 12.5373 6.26866C12.5373 7.76041 12.0163 9.13038 11.1463 10.2066C11.1725 10.2261 11.1974 10.2476 11.2212 10.2714L14.8033 13.8535C15.0656 14.1158 15.0656 14.541 14.8033 14.8033C14.541 15.0656 14.1158 15.0656 13.8535 14.8033L10.2714 11.2212C10.2477 11.1975 10.2261 11.1724 10.2066 11.1463ZM11.194 6.26866C11.194 8.98889 8.98891 11.194 6.26867 11.194C3.54845 11.194 1.34329 8.98889 1.34329 6.26866C1.34329 3.54846 3.54845 1.34329 6.26867 1.34329C8.98891 1.34329 11.194 3.54846 11.194 6.26866Z" fill="#2B2C2C" fill-opacity="0.6"/>
</svg>
